<?xml version="1.0" encoding="UTF-8"?>
<svg version="1.1" xmlns="http://www.w3.org/2000/svg" width="1024" height="1024">
<path d="M0 0 C337.92 0 675.84 0 1024 0 C1024 337.92 1024 675.84 1024 1024 C686.08 1024 348.16 1024 0 1024 C0 686.08 0 348.16 0 0 Z " fill="#000000" transform="translate(0,0)"/>
<path d="M0 0 C337.92 0 675.84 0 1024 0 C1024 337.92 1024 675.84 1024 1024 C686.08 1024 348.16 1024 0 1024 C0 686.08 0 348.16 0 0 Z M173 118 C172.15542661 118.26550868 171.31085322 118.53101735 170.4406867 118.80457175 C153.3645728 124.44854804 138.47472585 134.01856382 126 147 C126 147.66 126 148.32 126 149 C124.515 149.495 124.515 149.495 123 150 C102.83633767 173.68907877 98.3699894 199.42866695 98.49879456 229.5004425 C98.49489506 232.03949344 98.48924945 234.57854219 98.48202366 237.11758584 C98.47039791 242.60679562 98.47101069 248.09578598 98.48280334 253.58499146 C98.50029107 261.74772481 98.49464799 269.91033237 98.48463643 278.07307251 C98.46749855 292.65573837 98.4729504 307.23832874 98.48799362 321.82099298 C98.50106989 334.57976203 98.50623664 347.33850494 98.50367546 360.0972805 C98.50351505 360.94515963 98.50335463 361.79303875 98.50318935 362.66661118 C98.50252572 366.10878448 98.5018233 369.55095777 98.50106401 372.99313105 C98.49404857 405.2464022 98.50950356 437.49962738 98.53568747 469.75288683 C98.55881099 498.38808807 98.56418592 527.0232388 98.55395508 555.65844727 C98.55135292 562.99483647 98.54876786 570.33122567 98.54635715 577.66761494 C98.54605971 578.57090414 98.54576226 579.47419335 98.5454558 580.40485496 C98.53783716 604.35965962 98.54425621 628.31446015 98.55505317 652.26926297 C98.55620094 654.84738364 98.55734412 657.42550432 98.55848 660.003625 C98.55923524 661.71375042 98.56000089 663.42387584 98.56077701 665.13400125 C98.56642863 677.88607937 98.56511 690.63814439 98.56054878 703.39022255 C98.55543597 717.89016314 98.56131653 732.39005486 98.58144308 746.88998327 C98.59240991 754.99890479 98.59524069 763.10773019 98.58615455 771.21665459 C98.58030379 777.27706646 98.59019847 783.33734646 98.6061542 789.39774456 C98.61019212 791.84491658 98.60920987 794.29210325 98.60263533 796.73926977 C98.57281097 808.8817303 98.6227516 820.24660022 102 832 C102.19194822 832.75978867 102.38389645 833.51957735 102.58166128 834.30238992 C106.18171219 848.30550743 112.49161918 861.0496889 122 872 C122.63808594 872.75796875 123.27617188 873.5159375 123.93359375 874.296875 C138.87523393 891.65597353 158.04908263 902.20334014 180 908 C180.64345043 908.17390102 181.28690085 908.34780204 181.94984978 908.52697278 C188.06343668 910.04655954 193.85866081 910.2818974 200.13873482 910.25447559 C201.78107233 910.25928531 201.78107233 910.25928531 203.45658839 910.26419219 C207.12712839 910.27249657 210.79750541 910.26656623 214.4680481 910.26069641 C217.12562653 910.2637169 219.78319332 910.26752504 222.44076812 910.27228898 C228.21989431 910.28104338 233.99898506 910.28236579 239.77811623 910.27878571 C248.37223275 910.27347586 256.966315 910.27957691 265.56042779 910.28786864 C281.80393462 910.30310971 298.04742586 910.30481353 314.29093833 910.30234561 C326.83636473 910.30051276 339.38178601 910.30227239 351.92721176 910.30657005 C353.72979534 910.30717246 355.53237893 910.30777365 357.33496251 910.30837366 C360.05133168 910.30928092 362.76770085 910.31018958 365.48407002 910.31110601 C390.74093729 910.31953598 415.99780262 910.323871 441.2546711 910.31969929 C442.68292977 910.31946472 442.68292977 910.31946472 444.14004215 910.31922542 C448.96597956 910.31841964 453.79191697 910.31757387 458.61785437 910.31671212 C459.57629144 910.31654103 460.5347285 910.31636994 461.52220912 910.31619367 C463.46040283 910.31584702 465.39859654 910.31549849 467.33679025 910.31514808 C497.48755924 910.30979221 527.63829897 910.31771731 557.7890625 910.33618164 C591.66886198 910.35690536 625.54864334 910.36762352 659.42844951 910.36360615 C663.04226422 910.36321081 666.65607893 910.36284927 670.26989365 910.36250877 C671.15969586 910.36241804 672.04949807 910.36232731 672.96626398 910.36223383 C686.39010571 910.36106858 699.81392912 910.36771077 713.23776627 910.37832069 C728.50939523 910.39037881 743.78098389 910.39192471 759.05261345 910.37953053 C767.59452519 910.37290802 776.13634053 910.37451888 784.67824453 910.38811904 C790.3908724 910.39637911 796.10342826 910.3936458 801.81605031 910.38214377 C805.0664427 910.37590264 808.31661107 910.37591827 811.56699921 910.38600711 C824.37772307 910.42300224 836.56936772 910.38860195 849 907 C849 906.34 849 905.68 849 905 C849.71285156 904.90203125 850.42570313 904.8040625 851.16015625 904.703125 C857.4046618 903.72820892 861.68670752 902.37189715 867 899 C868.63001953 898.32710937 868.63001953 898.32710937 870.29296875 897.640625 C891.96342756 888.52147244 909.06775106 866.23320684 918.12744141 845.26855469 C923.31061033 831.79289559 925.15657923 817.7407168 925.13422108 803.39784241 C925.13657331 802.36095463 925.13892554 801.32406685 925.14134905 800.25575823 C925.14800407 796.7825554 925.14758188 793.30939029 925.14717102 789.83618164 C925.15047181 787.32027632 925.15419783 784.80437153 925.1583125 782.28846741 C925.16726736 776.09987922 925.17155619 769.91130219 925.17383147 763.72270841 C925.17680022 756.3076386 925.1855015 748.89257821 925.19424575 741.47751337 C925.21506262 723.55786403 925.22555523 705.63821307 925.23437535 687.71855447 C925.23858542 679.23783314 925.24380689 670.75711252 925.24905988 662.27639179 C925.26694684 633.23363009 925.28194229 604.19086819 925.28938007 575.14810181 C925.28985483 573.32576056 925.29033072 571.50341932 925.29080774 569.68107808 C925.29104411 568.7773843 925.29128049 567.87369052 925.29152403 566.94261207 C925.29272519 562.36424789 925.29394065 557.78588371 925.29516602 553.20751953 C925.29552624 551.84464952 925.29552624 551.84464952 925.29589374 550.45424679 C925.30378596 520.99859564 925.32721788 491.54298476 925.35972196 462.08735119 C925.39404197 430.92910168 925.41373316 399.77087573 925.41702431 368.612607 C925.41744184 365.19029553 925.4179214 361.76798407 925.41844749 358.34567261 C925.41857069 357.50303236 925.41869388 356.66039211 925.4188208 355.79221731 C925.42114995 342.24930925 925.43679376 328.70644809 925.45728934 315.16355673 C925.47757391 301.54374394 925.48301217 287.92398731 925.47351871 274.3041622 C925.46831422 266.22032193 925.4741313 258.13666905 925.49605338 250.05285586 C925.51120904 244.00537839 925.50528188 237.95810982 925.49138286 231.91062152 C925.48900701 229.47251218 925.49332905 227.03438465 925.50521151 224.59630311 C925.58226446 207.73537429 924.70126639 192.31048576 917 177 C916.43695182 175.6043877 915.87447754 174.20854376 915.3125 172.8125 C906.26515613 152.68391325 889.50754728 135.65649085 869.8125 125.75 C869.15894531 125.41484375 868.50539063 125.0796875 867.83203125 124.734375 C865.86485475 123.81396349 865.86485475 123.81396349 863 124 C863 123.34 863 122.68 863 122 C859.839654 121.01999772 856.67081466 120.07052726 853.5 119.125 C852.19869141 118.72087891 852.19869141 118.72087891 850.87109375 118.30859375 C834.18237115 113.3860209 817.23425947 113.70925766 800.00061035 113.73257446 C797.37070145 113.72883354 794.74080428 113.7243092 792.11089945 113.71884382 C786.41389342 113.70859343 780.71692134 113.70569133 775.019907 113.70775604 C766.5479558 113.71081889 758.07604188 113.70245395 749.60409795 113.69200679 C733.59088449 113.67271042 717.57768388 113.66704027 701.56446016 113.66589268 C689.19798526 113.66497222 676.83151538 113.66084845 664.46504211 113.65449142 C660.90046708 113.65269625 657.33589205 113.65091662 653.77131701 113.64914167 C652.88507272 113.64869957 651.99882843 113.64825748 651.08572825 113.64780198 C626.17429691 113.63550209 601.26286731 113.62760003 576.3514328 113.62848854 C575.41311056 113.6285197 574.47478833 113.62855086 573.50803209 113.62858296 C568.75261082 113.62874916 563.99718956 113.62894724 559.2417683 113.62915237 C557.82518934 113.62921221 557.82518934 113.62921221 556.37999263 113.62927325 C554.47021823 113.62935413 552.56044383 113.62943772 550.65066943 113.62952404 C520.92838898 113.63074992 491.20615413 113.61572585 461.48388672 113.58837891 C428.0654805 113.55764362 394.64710424 113.54044716 361.22868299 113.54230535 C357.66410796 113.54245461 354.09953292 113.54255202 350.53495789 113.54261398 C349.6573138 113.54263729 348.77966972 113.5426606 347.87543036 113.54268462 C333.76830485 113.54274609 319.66121904 113.52998938 305.55410533 113.51274945 C291.37393704 113.49577873 277.19382671 113.49383053 263.01365387 113.5069681 C254.5963062 113.51434661 246.17913485 113.51073211 237.76180594 113.49108342 C232.13118255 113.47905318 226.50068638 113.48170811 220.87006874 113.49602441 C217.6674046 113.50376172 214.46514624 113.50317707 211.26249391 113.48910971 C197.89256989 113.4342888 185.77580775 113.78208144 173 118 Z " fill="#FAFAFA" transform="translate(0,0)"/>
<path d="M0 0 C175.97193126 0 175.97193126 0 191.5 4.75 C192.37873779 5.01095459 193.25747559 5.27190918 194.1628418 5.54077148 C205.33524458 8.92116028 216.30497712 12.34655292 226 19 C226.99 19.33 227.98 19.66 229 20 C229 20.66 229 21.32 229 22 C229.68449219 22.21527344 230.36898437 22.43054688 231.07421875 22.65234375 C234.87780035 24.40432726 237.67885074 26.81753029 240.8125 29.5625 C241.4319751 30.10116699 242.0514502 30.63983398 242.68969727 31.19482422 C253.27143458 40.52847339 261.59745533 51.41956134 268 64 C268.33644531 64.66 268.67289062 65.32 269.01953125 66 C271.72834323 71.69821804 273.53799737 77.64718131 275.33789062 83.67993164 C276.15172875 87.11579759 276.15172875 87.11579759 278 90 C278.37514918 92.64656024 278.7061971 95.28179725 279 97.9375 C279.40578678 103.12513306 279.40578678 103.12513306 281 108 C281.28280694 113.18008042 281.24471423 118.37523913 281.25 123.5625 C281.25133942 124.32454742 281.25267883 125.08659485 281.25405884 125.87173462 C281.25018386 136.04221921 280.89960304 146.0766176 279.6875 156.1875 C279.51105957 157.6880896 279.51105957 157.6880896 279.33105469 159.21899414 C278.59837079 164.63776312 277.28791741 168.99481307 275 174 C274.65489507 175.30980748 274.33670135 176.6269426 274.04296875 177.94921875 C273.04059228 182.22966505 271.32581593 185.92031327 269.3125 189.8125 C268.77967407 190.85398193 268.77967407 190.85398193 268.23608398 191.91650391 C263.39660823 201.24168942 258.0552559 209.3397713 250.8203125 217.00390625 C248.95023631 218.87265788 248.95023631 218.87265788 248 221 C247.34 221 246.68 221 246 221 C246 221.66 246 222.32 246 223 C243.80790789 224.89546259 241.60936994 226.67756069 239.3125 228.4375 C238.68666016 228.92798828 238.06082031 229.41847656 237.41601562 229.92382812 C228.29625295 237 228.29625295 237 225 237 C225 237.66 225 238.32 225 239 C224.071875 239.391875 223.14375 239.78375 222.1875 240.1875 C220.02029762 241.10406385 217.89564966 242.0519908 215.7890625 243.1015625 C209.85592425 246.00262379 203.79559552 248.17224761 197.5 250.125 C196.74887939 250.36645752 195.99775879 250.60791504 195.22387695 250.85668945 C178.78329647 255.78599674 162.18050635 256.42885857 145.14453125 256.29296875 C143.25761178 256.28854163 141.37068857 256.28549116 139.48376465 256.28381348 C132.59328583 256.26827325 125.70288659 256.22639114 118.8125 256.1875 C95.6403125 256.0946875 95.6403125 256.0946875 72 256 C72 294.28 72 332.56 72 372 C48.24 372 24.48 372 0 372 C0 249.24 0 126.48 0 0 Z " fill="#FDFDFD" transform="translate(202,326)"/>
<path d="M0 0 C23.43 0 46.86 0 71 0 C71 57.09 71 114.18 71 173 C71.66 173 72.32 173 73 173 C73.22945312 172.46117187 73.45890625 171.92234375 73.6953125 171.3671875 C75.38901828 168.29417641 77.58824501 165.76301077 79.875 163.125 C80.3604126 162.55837646 80.8458252 161.99175293 81.34594727 161.40795898 C82.3745418 160.20812412 83.4049388 159.00983243 84.43701172 157.81298828 C85.95296866 156.054554 87.46374061 154.29182168 88.97265625 152.52734375 C91.4731742 149.60415654 93.97785842 146.68457697 96.48388672 143.76611328 C99.48935434 140.26505808 102.49145815 136.76111655 105.49316406 133.25683594 C108.02685208 130.29948748 110.5634265 127.34470321 113.10546875 124.39453125 C117.60880698 119.16326589 122.09029743 113.92510755 126.4375 108.5625 C130.57996379 103.45772157 134.88119099 98.50377318 139.20068359 93.54931641 C143.12501658 89.03765267 146.93434037 84.44665494 150.69921875 79.80078125 C154.37772387 75.32287264 158.17039656 70.94400705 161.94921875 66.55078125 C168.17522367 59.31183876 174.3608624 52.04134091 180.375 44.625 C183.89537557 40.29800197 187.51930294 36.07612689 191.1875 31.875 C196.62713438 25.64331103 201.92133242 19.30336928 207.1550293 12.89794922 C207.70070557 12.23037598 208.24638184 11.56280273 208.80859375 10.875 C209.28095459 10.29492188 209.75331543 9.71484375 210.23999023 9.1171875 C210.82079346 8.41851562 211.40159668 7.71984375 212 7 C212.38928775 6.43567733 212.7785755 5.87135466 213.17965984 5.2899313 C216.81258526 0.39085362 216.81258526 0.39085362 219.93648052 -0.63741875 C222.20768482 -0.85972305 224.38646399 -0.86716554 226.66748047 -0.79467773 C227.51691727 -0.79569992 228.36635406 -0.79672211 229.24153137 -0.79777527 C232.03471352 -0.79291836 234.8245804 -0.73857177 237.6171875 -0.68359375 C239.55915542 -0.67053069 241.50114648 -0.66056986 243.44314575 -0.65357971 C248.54337764 -0.62690978 253.64220405 -0.55819643 258.74188232 -0.48065186 C263.95012398 -0.4089197 269.15859377 -0.3770469 274.3671875 -0.34179688 C284.578741 -0.26682457 294.78925343 -0.14742329 305 0 C304.04785033 1.28044872 303.09418839 2.559773 302.13989258 3.83862305 C301.34353142 4.90743965 301.34353142 4.90743965 300.53108215 5.99784851 C298.70175296 8.39000896 296.73784447 10.60770397 294.6875 12.8125 C290.77441351 17.09732971 287.08943287 21.51948912 283.4375 26.02734375 C280.73108815 29.32795179 277.96954706 32.57565651 275.1875 35.8125 C274.42578491 36.69893188 274.42578491 36.69893188 273.64868164 37.60327148 C271.6077352 39.97575527 269.56455001 42.34629092 267.51904297 44.71484375 C261.52637106 51.65520333 255.61970278 58.65334718 249.8125 65.75 C245.36914342 71.17996606 240.83830119 76.48141515 236.09765625 81.65625 C231.62352427 86.65528015 227.2300625 91.83096382 223.3671875 97.3203125 C222.91601562 97.87460937 222.46484375 98.42890625 222 99 C221.34 99 220.68 99 220 99 C219.72615479 99.59224365 219.45230957 100.1844873 219.17016602 100.79467773 C218.04182286 102.92117965 216.86920306 104.49105363 215.27734375 106.28515625 C214.74343018 106.89262695 214.2095166 107.50009766 213.65942383 108.12597656 C213.09118896 108.7650293 212.5229541 109.40408203 211.9375 110.0625 C207.98014886 114.56372152 204.07224274 119.08064208 200.3125 123.75 C196.53673434 128.41621131 192.53647821 132.8305345 188.47265625 137.24609375 C185.2605598 140.82354715 182.25086763 144.54251662 179.25390625 148.30078125 C176.23441794 151.91684091 172.92423533 155.22549412 169.5546875 158.515625 C167.69931697 160.99113574 167.69931697 160.99113574 168.00390625 164.39453125 C169.08814918 168.31906548 170.71503997 171.18248561 173.0625 174.4375 C173.97238337 175.74928672 174.88115692 177.06184365 175.7890625 178.375 C176.54944824 179.46361328 176.54944824 179.46361328 177.32519531 180.57421875 C180.59852227 185.31529406 183.75455979 190.13551146 186.9375 194.9375 C191.96407485 202.48997123 197.03271227 210.00913242 202.19458008 217.46972656 C205.64277761 222.45894139 209.01106778 227.49802912 212.36157227 232.55322266 C215.12777542 236.71774455 217.95219595 240.83715205 220.8125 244.9375 C230 258.16489362 230 258.16489362 230 261 C230.66 261 231.32 261 232 261 C233.33984375 262.84375 233.33984375 262.84375 234.9375 265.5 C237.97231982 270.41261459 241.14788554 275.19191923 244.4375 279.9375 C247.57750252 284.47722452 250.70178777 289.02279722 253.75 293.625 C260.71792962 304.126564 267.87585635 314.50146825 274.98632812 324.90673828 C276.9290267 327.74988826 278.87100921 330.59352514 280.8125 333.4375 C281.43850098 334.35426514 282.06450195 335.27103027 282.70947266 336.21557617 C286.72740539 342.10850875 290.69497445 348.03222667 294.6237793 353.98486328 C297.79190424 358.75764047 301.14623298 363.35737127 304.6015625 367.92578125 C306 370 306 370 306 372 C295.07371313 372.32508588 284.14858438 372.57347454 273.21843815 372.72537041 C268.14217343 372.79829658 263.06922725 372.89709259 257.99487305 373.05615234 C253.09270922 373.20884414 248.19372461 373.2920848 243.28936577 373.3282814 C241.42347573 373.35405421 239.55775077 373.40439466 237.69322395 373.48022079 C223.46801015 374.03545418 223.46801015 374.03545418 219.35434723 370.64277267 C216.07795024 366.83358725 214.09166003 362.53260759 212 358 C210.87257967 356.24415402 209.71597083 354.50598852 208.5078125 352.8046875 C207.95867187 352.00256836 207.40953125 351.20044922 206.84375 350.37402344 C206.2765625 349.5493457 205.709375 348.72466797 205.125 347.875 C203.81478767 345.96115413 202.50490789 344.04708057 201.1953125 342.1328125 C200.51243164 341.13540039 199.82955078 340.13798828 199.12597656 339.11035156 C195.4044355 333.66565323 191.70215213 328.20788926 188 322.75 C187.60971619 322.17479614 187.21943237 321.59959229 186.81732178 321.00695801 C179.45542173 310.15653787 172.11069738 299.29451866 164.76724243 288.43161011 C158.15844024 278.65612162 151.5278667 268.89613796 144.87060547 259.15356445 C141.11656435 253.65418625 137.40502163 248.12876376 133.72583008 242.57910156 C128.2416266 234.32459844 122.61145623 226.16825708 117 218 C113.23504123 219.7452436 111.08838476 221.82189343 108.3125 224.9375 C107.65677002 225.67057373 107.65677002 225.67057373 106.98779297 226.41845703 C104.10777101 229.66485692 101.3489711 232.99608503 98.625 236.375 C94.76534001 241.16206946 90.66695584 245.65349263 86.46606445 250.13720703 C82.31949578 254.58877842 78.45175483 259.20610028 74.64453125 263.953125 C73 266 73 266 72 267 C71.89258229 268.36561766 71.85321012 269.73667243 71.84178162 271.10646057 C71.8319928 271.99132141 71.82220398 272.87618225 71.81211853 273.78785706 C71.80636307 274.76608932 71.8006076 275.74432159 71.79467773 276.75219727 C71.78477814 277.7764682 71.77487854 278.80073914 71.76467896 279.85604858 C71.73295829 283.2594772 71.70826493 286.66291981 71.68359375 290.06640625 C71.66303334 292.41910679 71.64203712 294.77180356 71.62062073 297.12449646 C71.56530576 303.33052526 71.51593819 309.53658792 71.46777344 315.74267578 C71.40881742 323.18159455 71.34253782 330.62045117 71.27747345 338.05931854 C71.17934544 349.37284122 71.09057044 360.68640292 71 372 C47.57 372 24.14 372 0 372 C0 249.24 0 126.48 0 0 Z " fill="#FDFDFD" transform="translate(525,326)"/>
<path d="M0 0 C168.96 0 337.92 0 512 0 C512 28.38 512 56.76 512 86 C455.57 86 399.14 86 341 86 C341 95.24 341 104.48 341 114 C337.8638908 114.00358253 337.8638908 114.00358253 334.66442585 114.00723743 C285.0207471 114.06441052 235.37711058 114.13735398 185.73348301 114.22898628 C179.62155723 114.24025428 173.50963123 114.25139276 167.39770508 114.26245117 C166.18094429 114.26465486 164.9641835 114.26685854 163.71055117 114.269129 C144.01583405 114.30448946 124.32111697 114.32936067 104.62637988 114.35034702 C84.41375992 114.37211902 64.2011811 114.40518278 43.98859614 114.44870156 C31.51904732 114.47519409 19.04954976 114.49290715 6.5799742 114.49934604 C-1.97396919 114.50460724 -10.52784809 114.52084885 -19.08175691 114.54566566 C-24.01492295 114.55965547 -28.94797363 114.56886086 -33.88116074 114.56500816 C-38.40375652 114.56158333 -42.92610647 114.5720465 -47.44865195 114.59323552 C-49.07874289 114.59847853 -50.70885953 114.59876467 -52.33895006 114.59339563 C-60.9479917 114.56794366 -68.89670277 115.04484825 -77.26747304 117.35776776 C-80 118 -80 118 -85 118 C-85 107.44 -85 96.88 -85 86 C-56.95 86 -28.9 86 0 86 C0 57.62 0 29.24 0 0 Z " fill="#FCFDFC" transform="translate(256,0)"/>
<path d="M0 0 C28.05 0 56.1 0 85 0 C85 28.38 85 56.76 85 86 C113.05 86 141.1 86 170 86 C170 114.05 170 142.1 170 171 C162.74 171 155.48 171 148 171 C147.67 172.32 147.34 173.64 147 175 C146.8040625 174.48953125 146.608125 173.9790625 146.40625 173.453125 C138.18430954 153.46530422 121.21968735 136.30304072 101.8125 126.8125 C101.15894531 126.48894531 100.50539063 126.16539063 99.83203125 125.83203125 C97.8382683 124.88810876 97.8382683 124.88810876 95 124 C95 123.34 95 122.68 95 122 C93.97777344 121.87496094 92.95554687 121.74992187 91.90234375 121.62109375 C88.28245665 121.04495556 85.04856851 120.17151339 81.5625 119.0625 C66.31024386 114.64454234 50.91471964 114.69616756 35.16210938 114.68115234 C32.90361682 114.67183547 30.64512766 114.66166423 28.38664246 114.65071106 C22.30308037 114.62359526 16.21954119 114.60831673 10.13593483 114.59528303 C3.76047792 114.57957124 -2.61493276 114.55280699 -8.99035645 114.5272522 C-19.67568719 114.48589401 -30.3610181 114.45125987 -41.04638672 114.421875 C-52.04412666 114.39161243 -63.0418412 114.35722727 -74.03955078 114.31738281 C-74.71936919 114.31492126 -75.3991876 114.31245972 -76.09960657 114.30992357 C-79.51062899 114.29754748 -82.9216511 114.28509124 -86.33267307 114.27259517 C-114.55508038 114.1693075 -142.7775194 114.08055025 -171 114 C-171 104.76 -171 95.52 -171 86 C-114.57 86 -58.14 86 0 86 C0 57.62 0 29.24 0 0 Z " fill="#DFDFDF" transform="translate(768,0)"/>
<path d="M0 0 C112.53 0 225.06 0 341 0 C341 9.24 341 18.48 341 28 C312.62 28 284.24 28 255 28 C255 56.38 255 84.76 255 114 C226.95 114 198.9 114 170 114 C170 85.62 170 57.24 170 28 C113.9 28 57.8 28 0 28 C0 18.76 0 9.52 0 0 Z " fill="#E0E0E0" transform="translate(427,910)"/>
<path d="M0 0 C13.98375 -0.0825 27.9675 -0.165 42.375 -0.25 C46.75313965 -0.28641602 51.1312793 -0.32283203 55.64208984 -0.36035156 C61.08325195 -0.37841797 61.08325195 -0.37841797 63.64883423 -0.3817749 C65.40058485 -0.38782585 67.15232128 -0.40169822 68.90396118 -0.42230225 C89.67583382 -0.65393196 107.07839403 1.73443955 122.9375 16.25 C137.18202107 31.48771703 137.79101028 53.36012424 137.18359375 73.04345703 C136.28697915 87.48229059 130.78007284 101.1810875 120 111 C116.80533923 113.31355272 113.50828905 115.20467837 110 117 C109.26910156 117.39058594 108.53820312 117.78117187 107.78515625 118.18359375 C102.4671424 120.80894236 97.26652853 121.8137392 91.40625 122.60546875 C89.05476924 122.750771 89.05476924 122.750771 88 124 C85.26107914 124.09516339 82.54755489 124.12553288 79.80834961 124.11352539 C78.93595674 124.11364593 78.06356386 124.11376646 77.16473484 124.11389065 C74.32724564 124.11314138 71.48982128 124.10551252 68.65234375 124.09765625 C66.90596549 124.09618687 65.15958679 124.09516614 63.41320801 124.09460449 C56.92129864 124.0893511 50.42939869 124.07539003 43.9375 124.0625 C29.438125 124.041875 14.93875 124.02125 0 124 C0 83.08 0 42.16 0 0 Z " fill="#020202" transform="translate(274,393)"/>
<path d="M0 0 C56.43 0 112.86 0 171 0 C171 28.38 171 56.76 171 86 C114.57 86 58.14 86 0 86 C0 57.62 0 29.24 0 0 Z " fill="#FDFEFD" transform="translate(597,0)"/>
<path d="M0 0 C56.1 0 112.2 0 170 0 C170 28.38 170 56.76 170 86 C113.9 86 57.8 86 0 86 C0 57.62 0 29.24 0 0 Z " fill="#FEFEFE" transform="translate(427,938)"/>
<path d="M0 0 C28.05 0 56.1 0 85 0 C85 56.43 85 112.86 85 171 C56.95 171 28.9 171 0 171 C0 114.57 0 58.14 0 0 Z " fill="#DFDFDF" transform="translate(0,511)"/>
<path d="M0 0 C28.05 0 56.1 0 85 0 C85 55.44 85 110.88 85 168 C56.95 168 28.9 168 0 168 C0 112.56 0 57.12 0 0 Z " fill="#DFDFDF" transform="translate(939,171)"/>
<path d="M0 0 C28.38 0 56.76 0 86 0 C86 28.38 86 56.76 86 86 C57.62 86 29.24 86 0 86 C0 57.62 0 29.24 0 0 Z " fill="#FEFEFE" transform="translate(682,938)"/>
<path d="M0 0 C28.05 0 56.1 0 85 0 C85 28.38 85 56.76 85 86 C56.95 86 28.9 86 0 86 C0 57.62 0 29.24 0 0 Z " fill="#DFDFDF" transform="translate(939,938)"/>
<path d="M0 0 C28.05 0 56.1 0 85 0 C85 28.38 85 56.76 85 86 C56.95 86 28.9 86 0 86 C0 57.62 0 29.24 0 0 Z " fill="#FEFEFE" transform="translate(853,938)"/>
<path d="M0 0 C28.05 0 56.1 0 85 0 C85 28.38 85 56.76 85 86 C56.95 86 28.9 86 0 86 C0 57.62 0 29.24 0 0 Z " fill="#DFE0E0" transform="translate(768,938)"/>
<path d="M0 0 C28.05 0 56.1 0 85 0 C85 28.38 85 56.76 85 86 C56.95 86 28.9 86 0 86 C0 57.62 0 29.24 0 0 Z " fill="#DFDFDF" transform="translate(597,938)"/>
<path d="M0 0 C28.05 0 56.1 0 85 0 C85 28.38 85 56.76 85 86 C56.95 86 28.9 86 0 86 C0 57.62 0 29.24 0 0 Z " fill="#DFDFDF" transform="translate(342,938)"/>
<path d="M0 0 C28.05 0 56.1 0 85 0 C85 28.38 85 56.76 85 86 C56.95 86 28.9 86 0 86 C0 57.62 0 29.24 0 0 Z " fill="#FEFEFE" transform="translate(256,938)"/>
<path d="M0 0 C28.05 0 56.1 0 85 0 C85 28.38 85 56.76 85 86 C56.95 86 28.9 86 0 86 C0 57.62 0 29.24 0 0 Z " fill="#DFDFDF" transform="translate(171,938)"/>
<path d="M0 0 C28.05 0 56.1 0 85 0 C85 28.38 85 56.76 85 86 C56.95 86 28.9 86 0 86 C0 57.62 0 29.24 0 0 Z " fill="#FEFEFE" transform="translate(86,938)"/>
<path d="M0 0 C28.05 0 56.1 0 85 0 C85 28.38 85 56.76 85 86 C56.95 86 28.9 86 0 86 C0 57.62 0 29.24 0 0 Z " fill="#DFDFDF" transform="translate(0,938)"/>
<path d="M0 0 C28.05 0 56.1 0 85 0 C85 28.38 85 56.76 85 86 C56.95 86 28.9 86 0 86 C0 57.62 0 29.24 0 0 Z " fill="#DFDFE0" transform="translate(0,767)"/>
<path d="M0 0 C28.05 0 56.1 0 85 0 C85 28.38 85 56.76 85 86 C56.95 86 28.9 86 0 86 C0 57.62 0 29.24 0 0 Z " fill="#DFDFDF" transform="translate(939,425)"/>
<path d="M0 0 C28.05 0 56.1 0 85 0 C85 28.38 85 56.76 85 86 C56.95 86 28.9 86 0 86 C0 57.62 0 29.24 0 0 Z " fill="#FEFEFE" transform="translate(0,425)"/>
<path d="M0 0 C28.05 0 56.1 0 85 0 C85 28.38 85 56.76 85 86 C56.95 86 28.9 86 0 86 C0 57.62 0 29.24 0 0 Z " fill="#DFE0DF" transform="translate(939,0)"/>
<path d="M0 0 C28.05 0 56.1 0 85 0 C85 28.38 85 56.76 85 86 C56.95 86 28.9 86 0 86 C0 57.62 0 29.24 0 0 Z " fill="#FEFEFE" transform="translate(853,0)"/>
<path d="M0 0 C28.05 0 56.1 0 85 0 C85 28.38 85 56.76 85 86 C56.95 86 28.9 86 0 86 C0 57.62 0 29.24 0 0 Z " fill="#DFDFDF" transform="translate(512,0)"/>
<path d="M0 0 C28.05 0 56.1 0 85 0 C85 28.38 85 56.76 85 86 C56.95 86 28.9 86 0 86 C0 57.62 0 29.24 0 0 Z " fill="#FEFEFD" transform="translate(427,0)"/>
<path d="M0 0 C28.05 0 56.1 0 85 0 C85 28.38 85 56.76 85 86 C56.95 86 28.9 86 0 86 C0 57.62 0 29.24 0 0 Z " fill="#DFDFDF" transform="translate(342,0)"/>
<path d="M0 0 C28.05 0 56.1 0 85 0 C85 28.38 85 56.76 85 86 C56.95 86 28.9 86 0 86 C0 57.62 0 29.24 0 0 Z " fill="#FEFDFD" transform="translate(256,0)"/>
<path d="M0 0 C28.05 0 56.1 0 85 0 C85 28.38 85 56.76 85 86 C56.95 86 28.9 86 0 86 C0 57.62 0 29.24 0 0 Z " fill="#DFDFDF" transform="translate(171,0)"/>
<path d="M0 0 C28.05 0 56.1 0 85 0 C85 28.38 85 56.76 85 86 C56.95 86 28.9 86 0 86 C0 57.62 0 29.24 0 0 Z " fill="#FEFEFE" transform="translate(86,0)"/>
<path d="M0 0 C28.05 0 56.1 0 85 0 C85 28.38 85 56.76 85 86 C56.95 86 28.9 86 0 86 C0 57.62 0 29.24 0 0 Z " fill="#DFDFDF" transform="translate(0,0)"/>
<path d="M0 0 C28.05 0 56.1 0 85 0 C85 28.38 85 56.76 85 86 C75.615625 86.020625 66.23125 86.04125 56.5625 86.0625 C53.65767822 86.071604 50.75285645 86.08070801 47.76000977 86.09008789 C45.36214239 86.0930184 42.9642745 86.09556423 40.56640625 86.09765625 C39.39879761 86.10277222 38.23118896 86.10788818 37.02819824 86.11315918 C24.64643385 86.11439058 12.41015113 85.49640605 0 85 C0 56.95 0 28.9 0 0 Z " fill="#FEFEFE" transform="translate(939,511)"/>
<path d="M0 0 C28.05 0 56.1 0 85 0 C85 28.05 85 56.1 85 85 C56.95 85 28.9 85 0 85 C0 56.95 0 28.9 0 0 Z " fill="#FEFEFE" transform="translate(939,853)"/>
<path d="M0 0 C28.05 0 56.1 0 85 0 C85 28.05 85 56.1 85 85 C56.95 85 28.9 85 0 85 C0 56.95 0 28.9 0 0 Z " fill="#DFDFDF" transform="translate(939,767)"/>
<path d="M0 0 C28.05 0 56.1 0 85 0 C85 28.05 85 56.1 85 85 C56.95 85 28.9 85 0 85 C0 56.95 0 28.9 0 0 Z " fill="#FEFEFE" transform="translate(939,682)"/>
<path d="M0 0 C28.05 0 56.1 0 85 0 C85 28.05 85 56.1 85 85 C56.95 85 28.9 85 0 85 C0 56.95 0 28.9 0 0 Z " fill="#FDFEFD" transform="translate(0,682)"/>
<path d="M0 0 C28.05 0 56.1 0 85 0 C85 28.05 85 56.1 85 85 C56.95 85 28.9 85 0 85 C0 56.95 0 28.9 0 0 Z " fill="#DFDFDF" transform="translate(939,597)"/>
<path d="M0 0 C28.05 0 56.1 0 85 0 C85 28.05 85 56.1 85 85 C56.95 85 28.9 85 0 85 C0 56.95 0 28.9 0 0 Z " fill="#FEFEFE" transform="translate(939,86)"/>
<path d="M0 0 C28.05 0 56.1 0 85 0 C85 28.05 85 56.1 85 85 C56.95 85 28.9 85 0 85 C0 56.95 0 28.9 0 0 Z " fill="#FEFEFE" transform="translate(0,86)"/>
<path d="M0 0 C28.05 0 56.1 0 85 0 C85 27.72 85 55.44 85 84 C56.95 84 28.9 84 0 84 C0 56.28 0 28.56 0 0 Z " fill="#FEFEFE" transform="translate(0,853)"/>
<path d="M0 0 C28.05 0 56.1 0 85 0 C85 27.72 85 55.44 85 84 C56.95 84 28.9 84 0 84 C0 56.28 0 28.56 0 0 Z " fill="#DFDFDF" transform="translate(0,340)"/>
<path d="M0 0 C28.05 0 56.1 0 85 0 C85 27.72 85 55.44 85 84 C56.95 84 28.9 84 0 84 C0 56.28 0 28.56 0 0 Z " fill="#FEFEFE" transform="translate(939,340)"/>
<path d="M0 0 C28.05 0 56.1 0 85 0 C85 27.72 85 55.44 85 84 C56.95 84 28.9 84 0 84 C0 56.28 0 28.56 0 0 Z " fill="#FEFEFD" transform="translate(0,256)"/>
<path d="M0 0 C28.05 0 56.1 0 85 0 C85 27.72 85 55.44 85 84 C56.95 84 28.9 84 0 84 C0 56.28 0 28.56 0 0 Z " fill="#DFDFDF" transform="translate(0,172)"/>
<path d="M0 0 C28.05 0 56.1 0 85 0 C85 10.56 85 21.12 85 32 C85.66 32.33 86.32 32.66 87 33 C85.94941406 33.37511719 84.89882812 33.75023437 83.81640625 34.13671875 C57.15400098 43.79226616 38.39957966 60.68991828 24 85 C23.34 85.99 22.68 86.98 22 88 C22 87.01 22 86.02 22 85 C14.74 85 7.48 85 0 85 C0 56.95 0 28.9 0 0 Z " fill="#DFDFDF" transform="translate(86,86)"/>
<path d="M0 0 C0.99 0.99 0.99 0.99 2 2 C8.93 2.33 15.86 2.66 23 3 C23 30.72 23 58.44 23 87 C-5.05 87 -33.1 87 -62 87 C-62 76.77 -62 66.54 -62 56 C-63.32 55.67 -64.64 55.34 -66 55 C-65.28714844 54.82984375 -64.57429687 54.6596875 -63.83984375 54.484375 C-57.88778068 52.97833481 -53.2114205 51.207028 -48 48 C-46.91460938 47.55398438 -45.82921875 47.10796875 -44.7109375 46.6484375 C-24.7118962 38.21726272 -9.62408935 18.71619387 0 0 Z " fill="#DEDFDE" transform="translate(915,850)"/>
<path d="M0 0 C2.20741964 2.77196087 3.77870876 5.47034557 5.25 8.6875 C7.87693585 14.0436177 11.16825704 18.45135029 15 23 C15.56847656 23.6909375 16.13695312 24.381875 16.72265625 25.09375 C30.30283203 41.17960742 48.7617676 51.73251486 69 57 C69 57.33 69 57.66 69 58 C67.35 58.33 65.7 58.66 64 59 C63.67 68.57 63.34 78.14 63 88 C34.95 88 6.9 88 -22 88 C-22 60.28 -22 32.56 -22 4 C-14.74 3.67 -7.48 3.34 0 3 C0 2.01 0 1.02 0 0 Z " fill="#DFDFDF" transform="translate(108,849)"/>
<path d="M0 0 C56.43 0 112.86 0 171 0 C171 9.24 171 18.48 171 28 C114.57 28 58.14 28 0 28 C0 18.76 0 9.52 0 0 Z " fill="#DFDFDF" transform="translate(597,86)"/>
<path d="M0 0 C56.1 0 112.2 0 170 0 C170 9.24 170 18.48 170 28 C113.9 28 57.8 28 0 28 C0 18.76 0 9.52 0 0 Z " fill="#DFDFDF" transform="translate(427,910)"/>
<path d="M0 0 C0.33 0 0.66 0 1 0 C1 201.63 1 403.26 1 611 C0.67 611 0.34 611 0 611 C0 594.5 0 578 0 561 C-3.96 561 -7.92 561 -12 561 C-12 532.95 -12 504.9 -12 476 C-8.04 476 -4.08 476 0 476 C0 419.57 0 363.14 0 305 C-3.96 305 -7.92 305 -12 305 C-12 276.62 -12 248.24 -12 219 C-8.04 219 -4.08 219 0 219 C0 190.95 0 162.9 0 134 C-3.96 134 -7.92 134 -12 134 C-12 106.28 -12 78.56 -12 50 C-8.04 50 -4.08 50 0 50 C0 33.5 0 17 0 0 Z " fill="#D3D4D3" transform="translate(98,206)"/>
<path d="M0 0 C28.05 0 56.1 0 85 0 C85 10.56 85 21.12 85 32 C81.17792969 31.51917969 77.35585938 31.03835937 73.41796875 30.54296875 C58.05327617 28.75336788 42.76553012 28.44799304 27.3125 28.3125 C24.64123487 28.28070214 21.97004604 28.244705 19.29882812 28.20898438 C12.86588173 28.12331801 6.43338595 28.06208592 0 28 C0 18.76 0 9.52 0 0 Z " fill="#FCFCFC" transform="translate(768,86)"/>
<path d="M0 0 C0 10.56 0 21.12 0 32 C-28.05 32 -56.1 32 -85 32 C-85 22.76 -85 13.52 -85 4 C-78.11447266 3.94392578 -78.11447266 3.94392578 -71.08984375 3.88671875 C-68.15035585 3.85637851 -65.21092412 3.82519148 -62.27148438 3.79101562 C-57.62429954 3.73706312 -52.97722577 3.68594357 -48.32983398 3.65356445 C-44.57540577 3.62720812 -40.82135919 3.58658938 -37.0671711 3.53681374 C-35.64779029 3.52036007 -34.22834382 3.50871406 -32.80888176 3.50238609 C-23.96850502 3.45905976 -15.71923838 2.59836771 -7.11280823 0.63825989 C-4 0 -4 0 0 0 Z " fill="#FDFDFD" transform="translate(853,906)"/>
<path d="M0 0 C28.05 0 56.1 0 85 0 C85 9.24 85 18.48 85 28 C82.05767456 28.02187378 82.05767456 28.02187378 79.0559082 28.04418945 C72.52592477 28.09613903 65.99617947 28.16150227 59.46641254 28.23571491 C55.51303007 28.2801674 51.55974471 28.31947629 47.60620117 28.34643555 C43.78046146 28.3727225 39.9551007 28.41329684 36.12959862 28.46318626 C34.68065343 28.47968548 33.23164296 28.49130396 31.78261757 28.49761391 C23.49321454 28.53731159 15.81026245 29.17136326 7.7721405 31.36174011 C5 32 5 32 0 32 C0 21.44 0 10.88 0 0 Z " fill="#FDFDFC" transform="translate(171,86)"/>
<path d="M0 0 C0.33 0 0.66 0 1 0 C1 43.23 1 86.46 1 131 C4.96 131 8.92 131 13 131 C13 158.72 13 186.44 13 215 C9.04 215 5.08 215 1 215 C1 244.04 1 273.08 1 303 C4.96 303 8.92 303 13 303 C13 330.72 13 358.44 13 387 C8.71 387.33 4.42 387.66 0 388 C0 259.96 0 131.92 0 0 Z " fill="#DEDEDE" transform="translate(925,209)"/>
<path d="M0 0 C28.05 0 56.1 0 85 0 C85 9.24 85 18.48 85 28 C56.95 28 28.9 28 0 28 C0 18.76 0 9.52 0 0 Z " fill="#FDFDFD" transform="translate(512,86)"/>
<path d="M0 0 C28.05 0 56.1 0 85 0 C85 9.24 85 18.48 85 28 C56.95 28 28.9 28 0 28 C0 18.76 0 9.52 0 0 Z " fill="#DFDFDF" transform="translate(427,86)"/>
<path d="M0 0 C28.05 0 56.1 0 85 0 C85 9.24 85 18.48 85 28 C56.95 28 28.9 28 0 28 C0 18.76 0 9.52 0 0 Z " fill="#DFDFDF" transform="translate(256,86)"/>
<path d="M0 0 C28.05 0 56.1 0 85 0 C85 8.91 85 17.82 85 27 C83.23417637 28.76582363 80.89628001 28.11985561 78.54483032 28.12442017 C77.37203018 28.11902725 77.37203018 28.11902725 76.17553711 28.11352539 C75.35609116 28.11367142 74.5366452 28.11381744 73.69236755 28.1139679 C70.97066647 28.11326852 68.24903295 28.10547501 65.52734375 28.09765625 C63.64547259 28.09579216 61.76360094 28.09436821 59.88172913 28.09336853 C54.91851471 28.08954267 49.95532936 28.07971181 44.99212646 28.06866455 C39.93160394 28.0584519 34.87107673 28.05387122 29.81054688 28.04882812 C19.87368306 28.03808959 9.93684849 28.02049225 0 28 C0 18.76 0 9.52 0 0 Z " fill="#FDFDFD" transform="translate(597,910)"/>
<path d="M0 0 C3.07341671 0.02813032 5.26590657 0.38566305 8.31030273 1.17333984 C15.12623 2.74179772 22.07940621 2.54590757 29.03515625 2.6015625 C30.52446021 2.62030476 32.01375388 2.63988037 33.5030365 2.6602478 C37.39417419 2.71125254 41.28534619 2.75104611 45.17663574 2.78839111 C49.15885686 2.828631 53.14093919 2.87963144 57.12304688 2.9296875 C64.9152759 3.02607121 72.70756028 3.10959777 80.5 3.1875 C80.5 12.0975 80.5 21.0075 80.5 30.1875 C52.45 30.1875 24.4 30.1875 -4.5 30.1875 C-4.5 0.24107143 -4.5 0.24107143 0 0 Z " fill="#FEFEFD" transform="translate(175.5,906.8125)"/>
<path d="M0 0 C0.84955261 -0.00131927 1.69910522 -0.00263855 2.57440186 -0.0039978 C5.36343972 -0.00592232 8.15237846 0.00044771 10.94140625 0.0078125 C11.88988434 0.00869873 12.83836243 0.00958496 13.81558228 0.01049805 C33.05648806 0.03153808 52.27476167 0.49374301 71.50390625 1.1328125 C71.50390625 9.7128125 71.50390625 18.2928125 71.50390625 27.1328125 C43.78390625 27.1328125 16.06390625 27.1328125 -12.49609375 27.1328125 C-12.49609375 18.5528125 -12.49609375 9.9728125 -12.49609375 1.1328125 C-8.23646302 0.06790482 -4.34972375 -0.01075232 0 0 Z " fill="#DFDFDF" transform="translate(269.49609375,909.8671875)"/>
<path d="M0 0 C7.26 0 14.52 0 22 0 C22 55.44 22 110.88 22 168 C18.04 168 14.08 168 10 168 C9.99857498 166.40989609 9.99714996 164.81979218 9.99568176 163.1815033 C9.9789216 148.10445951 9.93616565 133.02773392 9.86790943 117.95084286 C9.8334762 110.20197947 9.80793272 102.45328995 9.80444336 94.7043457 C9.80137291 87.93853752 9.7804765 81.17304073 9.73947543 74.40735251 C9.71841814 70.83559497 9.70540039 67.2642769 9.71384621 63.6924572 C9.75145966 44.48598528 9.63973393 24.62180782 0.77987385 7.10085964 C0 5 0 5 0 0 Z " fill="#FDFDFD" transform="translate(916,172)"/>
<path d="M0 0 C0.33 0 0.66 0 1 0 C1 28.05 1 56.1 1 85 C4.96 85 8.92 85 13 85 C13.02505615 86.50941162 13.0501123 88.01882324 13.07592773 89.57397461 C13.16980321 95.15186674 13.27007164 100.72962852 13.37231445 106.30737305 C13.41573878 108.72563639 13.45740812 111.1439319 13.49731445 113.56225586 C13.55483603 117.02988396 13.61858187 120.49734903 13.68359375 123.96484375 C13.70030624 125.05337143 13.71701874 126.14189911 13.73423767 127.26341248 C13.7641555 128.76485558 13.7641555 128.76485558 13.79467773 130.29663086 C13.81022202 131.18265488 13.8257663 132.06867889 13.84178162 132.98155212 C13.77981325 134.99637541 13.77981325 134.99637541 15 136 C15.44824298 138.01406472 15.85720986 140.03689037 16.25 142.0625 C17.56091063 148.42139486 19.30678079 154.51574001 21.37402344 160.66821289 C22.47613433 164.0095667 23 166.42971844 23 170 C16.03580586 172.32139805 8.34090518 171 1 171 C1 198.72 1 226.44 1 255 C57.1 255 113.2 255 171 255 C171 246.09 171 237.18 171 228 C172.65 228 174.3 228 176 228 C174.68 228.33 173.36 228.66 172 229 C172 237.58 172 246.16 172 255 C199.72 255 227.44 255 256 255 C256 255.33 256 255.66 256 256 C171.85 256 87.7 256 1 256 C1 284.38 1 312.76 1 342 C0.67 342 0.34 342 0 342 C0 313.62 0 285.24 0 256 C-28.05 256 -56.1 256 -85 256 C-85 255.67 -85 255.34 -85 255 C-56.95 255 -28.9 255 0 255 C0 170.85 0 86.7 0 0 Z M219 228 C231.54 228 244.08 228 257 228 C257 236.91 257 245.82 257 255 C256.67 255 256.34 255 256 255 C256 246.42 256 237.84 256 229 C243.79 229 231.58 229 219 229 C219 228.67 219 228.34 219 228 Z " fill="#FCFCFB" transform="translate(85,682)"/>
<path d="M0 0 C3.96 0 7.92 0 12 0 C12.02312283 11.06534858 12.04091478 22.13069145 12.05181217 33.19605923 C12.05704113 38.33359566 12.06413901 43.47111563 12.07543945 48.60864258 C12.08626787 53.5623141 12.09227674 58.51596974 12.09487724 63.46965218 C12.09673157 65.36397616 12.10035234 67.25829924 12.10573006 69.1526165 C12.11293989 71.79634386 12.11399097 74.44000471 12.11352539 77.08374023 C12.11712067 77.87495773 12.12071594 78.66617523 12.12442017 79.48136902 C12.11405216 84.88594784 12.11405216 84.88594784 11 86 C9.5112814 86.08669432 8.018555 86.10703494 6.52734375 86.09765625 C5.62822266 86.09443359 4.72910156 86.09121094 3.80273438 86.08789062 C2.38444336 86.07532227 2.38444336 86.07532227 0.9375 86.0625 C-0.01189453 86.05798828 -0.96128906 86.05347656 -1.93945312 86.04882812 C-4.29303065 86.0370011 -6.64648477 86.02052025 -9 86 C-10.50669966 81.28813924 -9.25296894 77.74200856 -7.6875 73.25 C-7.21456178 71.82777941 -6.74448729 70.40460319 -6.27734375 68.98046875 C-6.05288574 68.29774902 -5.82842773 67.6150293 -5.59716797 66.91162109 C-4.8399735 64.48773201 -4.26631526 62.04801766 -3.75 59.5625 C-3 56 -3 56 -2 55 C-0.85555876 48.96169533 -0.78467079 42.9479364 -0.68359375 36.81640625 C-0.6524221 35.23314796 -0.6524221 35.23314796 -0.62062073 33.61790466 C-0.55555152 30.2661655 -0.49643948 26.914352 -0.4375 23.5625 C-0.39427419 21.28189354 -0.35065864 19.00129443 -0.30664062 16.72070312 C-0.19991411 11.14721043 -0.098528 5.57364341 0 0 Z " fill="#FCFCFC" transform="translate(926,767)"/>
<path d="M0 0 C4.29 0 8.58 0 13 0 C13 28.05 13 56.1 13 85 C9.04 85 5.08 85 1 85 C1.00523682 86.41740479 1.01047363 87.83480957 1.01586914 89.29516602 C1.03401638 94.57120122 1.04546752 99.84723368 1.05493164 105.12329102 C1.05994964 107.40356918 1.0667655 109.68384414 1.07543945 111.96411133 C1.08761607 115.24821769 1.09325375 118.53228137 1.09765625 121.81640625 C1.10281754 122.83021866 1.10797882 123.84403107 1.11329651 124.88856506 C1.11370151 130.03859721 0.89476014 134.92556445 0 140 C-0.33 140 -0.66 140 -1 140 C-0.67 93.8 -0.34 47.6 0 0 Z " fill="#DCDCDC" transform="translate(925,682)"/>
<path d="M0 0 C4.29 0 8.58 0 13 0 C13 28.05 13 56.1 13 85 C8.71 85 4.42 85 0 85 C0 56.95 0 28.9 0 0 Z " fill="#FCFCFC" transform="translate(925,597)"/>
<path d="M0 0 C3.96 0 7.92 0 12 0 C12 28.38 12 56.76 12 86 C8.04 86 4.08 86 0 86 C0 57.62 0 29.24 0 0 Z " fill="#FDFEFD" transform="translate(926,425)"/>
<path d="M0 0 C3.96 0 7.92 0 12 0 C12 28.38 12 56.76 12 86 C8.04 86 4.08 86 0 86 C0 57.62 0 29.24 0 0 Z " fill="#DEDEDF" transform="translate(86,425)"/>
<path d="M0 0 C3.96 0 7.92 0 12 0 C12 28.05 12 56.1 12 85 C8.04 85 4.08 85 0 85 C0 56.95 0 28.9 0 0 Z " fill="#DEDEDF" transform="translate(86,682)"/>
<path d="M0 0 C3.96 0 7.92 0 12 0 C12 28.05 12 56.1 12 85 C8.04 84.67 4.08 84.34 0 84 C0 56.28 0 28.56 0 0 Z " fill="#FDFEFD" transform="translate(86,340)"/>
<path d="M0 0 C0.66 0 1.32 0 2 0 C2.51046875 1.17755859 2.51046875 1.17755859 3.03125 2.37890625 C8.05320028 13.26425062 13.78827324 18.82155554 25 23 C25 23.66 25 24.32 25 25 C24.21496094 25.3403125 23.42992187 25.680625 22.62109375 26.03125 C11.73574938 31.05320028 6.17844446 36.78827324 2 48 C1.34 48 0.68 48 0 48 C-0.3403125 47.21496094 -0.680625 46.42992187 -1.03125 45.62109375 C-6.05320028 34.73574938 -11.78827324 29.17844446 -23 25 C-23 24.34 -23 23.68 -23 23 C-22.21496094 22.6596875 -21.42992187 22.319375 -20.62109375 21.96875 C-9.73574938 16.94679972 -4.17844446 11.21172676 0 0 Z " fill="#EEEEEE" transform="translate(967,944)"/>
<path d="M0 0 C0.33 0 0.66 0 1 0 C1 84.15 1 168.3 1 255 C57.1 255 113.2 255 171 255 C171 246.09 171 237.18 171 228 C172.65 228 174.3 228 176 228 C174.68 228.33 173.36 228.66 172 229 C172 237.58 172 246.16 172 255 C199.72 255 227.44 255 256 255 C256 255.33 256 255.66 256 256 C171.85 256 87.7 256 1 256 C1 284.38 1 312.76 1 342 C0.67 342 0.34 342 0 342 C0 313.62 0 285.24 0 256 C-28.05 256 -56.1 256 -85 256 C-85 255.67 -85 255.34 -85 255 C-56.95 255 -28.9 255 0 255 C0 170.85 0 86.7 0 0 Z M219 228 C231.54 228 244.08 228 257 228 C257 236.91 257 245.82 257 255 C256.67 255 256.34 255 256 255 C256 246.42 256 237.84 256 229 C243.79 229 231.58 229 219 229 C219 228.67 219 228.34 219 228 Z " fill="#EEEEEE" transform="translate(85,682)"/>
<path d="M0 0 C0.33 0 0.66 0 1 0 C1 139.92 1 279.84 1 424 C4.63 424 8.26 424 12 424 C12 424.33 12 424.66 12 425 C8.37 425 4.74 425 1 425 C1 478.79 1 532.58 1 588 C0.67 588 0.34 588 0 588 C0 534.21 0 480.42 0 425 C-28.05 425 -56.1 425 -85 425 C-85 424.67 -85 424.34 -85 424 C-56.95 424 -28.9 424 0 424 C0 340.84 0 257.68 0 172 C-28.05 172 -56.1 172 -85 172 C-85 171.67 -85 171.34 -85 171 C-56.95 171 -28.9 171 0 171 C0 114.57 0 58.14 0 0 Z " fill="#EFEFEF" transform="translate(85,0)"/>
<path d="M0 0 C0.99 0.66 1.98 1.32 3 2 C3 2.66 3 3.32 3 4 C-25.05 4 -53.1 4 -82 4 C-82 3.67 -82 3.34 -82 3 C-54.94 3 -27.88 3 0 3 C0 2.01 0 1.02 0 0 Z " fill="#CFCFCF" transform="translate(828,694)"/>
<path d="M0 0 C0 3 0 3 -1.56054688 4.90112305 C-2.27275391 5.59761963 -2.98496094 6.29411621 -3.71875 7.01171875 C-4.48574219 7.76904297 -5.25273437 8.52636719 -6.04296875 9.30664062 C-6.85378906 10.09232422 -7.66460937 10.87800781 -8.5 11.6875 C-9.31082031 12.48478516 -10.12164062 13.28207031 -10.95703125 14.10351562 C-12.96482203 16.0758748 -14.9792687 18.04091492 -17 20 C-17 16.06830895 -15.60580385 14.83572772 -13 12 C-12.34 12 -11.68 12 -11 12 C-10.76539062 11.42765625 -10.53078125 10.8553125 -10.2890625 10.265625 C-8.70593415 7.48315699 -6.8008475 5.82929786 -4.375 3.75 C-3.55773437 3.04359375 -2.74046875 2.3371875 -1.8984375 1.609375 C-1.27195313 1.07828125 -0.64546875 0.5471875 0 0 Z " fill="#272829" transform="translate(137,137)"/>
</svg>
