<?xml version="1.0" encoding="UTF-8"?>
<svg version="1.1" xmlns="http://www.w3.org/2000/svg" width="512" height="512">
<path d="M0 0 C168.96 0 337.92 0 512 0 C512 168.96 512 337.92 512 512 C343.04 512 174.08 512 0 512 C0 343.04 0 174.08 0 0 Z " fill="#0A0A0A" transform="translate(0,0)"/>
<path d="M0 0 C80.7473904 0 80.7473904 0 99.02734375 16.87109375 C108.46816753 26.80771572 112.57048309 39.50576299 112.24609375 53.015625 C111.04160169 67.62248105 106.32244185 78.6985825 95.63671875 88.77734375 C86.45000992 96.52139905 74.48948016 102.14785769 62.30151367 102.11352539 C61.38849487 102.11340454 60.47547607 102.11328369 59.53479004 102.11315918 C58.58873901 102.10804321 57.64268799 102.10292725 56.66796875 102.09765625 C55.78838501 102.09664917 54.90880127 102.09564209 54.00256348 102.09460449 C50.7308623 102.08939006 47.45917978 102.07542883 44.1875 102.0625 C36.865625 102.041875 29.54375 102.02125 22 102 C22 124.77 22 147.54 22 171 C14.74 171 7.48 171 0 171 C0 114.57 0 58.14 0 0 Z " fill="#FAFAFA" transform="translate(126,171)"/>
<path d="M0 0 C7.26 0 14.52 0 22 0 C22.33 26.73 22.66 53.46 23 81 C31.34756036 71.19955956 31.34756036 71.19955956 39.375 61.1875 C43.3528485 56.07146419 47.40113791 51.01956854 51.5 46 C56.00414959 40.48119388 60.44238452 34.91793957 64.82495117 29.30224609 C68.94672784 24.03482381 73.16527925 18.84826635 77.41015625 13.6796875 C77.920625 13.05578125 78.43109375 12.431875 78.95703125 11.7890625 C79.47136719 11.17643555 79.98570312 10.56380859 80.515625 9.93261719 C82.0620856 8.01581114 82.0620856 8.01581114 83.25 5.76269531 C84.66443736 3.36176223 85.80813376 1.73391739 88 0 C92.49675617 -0.97461802 96.80145798 -0.75766434 101.375 -0.5 C102.58800781 -0.46390625 103.80101562 -0.4278125 105.05078125 -0.390625 C108.03710076 -0.29656769 111.01691402 -0.16526792 114 0 C112.70891619 2.76655418 111.2935196 5.04962067 109.34765625 7.3984375 C108.82429688 8.03523437 108.3009375 8.67203125 107.76171875 9.328125 C107.20097656 10.00359375 106.64023437 10.6790625 106.0625 11.375 C104.87535508 12.81953475 103.68917258 14.26486093 102.50390625 15.7109375 C101.91109863 16.4337793 101.31829102 17.15662109 100.70751953 17.90136719 C98.26500456 20.9033487 95.87877773 23.94743381 93.5 27 C89.55858871 32.04887355 85.5497088 37.0376054 81.5 42 C76.43615681 48.20584416 71.45761119 54.47203888 66.5234375 60.78125 C63.05285513 65.21721275 59.5295159 69.61085988 56 74 C57.35354652 76.81515547 58.85556939 79.43053696 60.56005859 82.04711914 C61.06977203 82.83106552 61.57948547 83.6150119 62.10464478 84.42271423 C62.65534637 85.2641951 63.20604797 86.10567596 63.7734375 86.97265625 C64.35032318 87.85695816 64.92720886 88.74126007 65.52157593 89.65235901 C71.2455791 98.40902449 77.04820034 107.11275413 82.86584473 115.80737305 C91.61500705 128.88831479 100.35534984 141.97597556 109.01043701 155.11941528 C109.83209958 156.36598854 110.65536519 157.61150677 111.48028564 158.85592651 C112.60065737 160.54686058 113.71459536 162.2420524 114.828125 163.9375 C115.4459082 164.87464844 116.06369141 165.81179688 116.70019531 166.77734375 C118 169 118 169 118 171 C96.23253027 173.65456948 96.23253027 173.65456948 89.93066406 169.70214844 C86.4081047 165.95738681 84.42304582 161.30654527 82.31396484 156.66992188 C79.88064036 151.72550781 76.69445612 147.25331598 73.625 142.6875 C72.33681025 140.72073353 71.05164684 138.75198153 69.76953125 136.78125 C69.13869629 135.81445312 68.50786133 134.84765625 67.85791016 133.8515625 C66.09311654 131.14291737 64.33255861 128.43158804 62.57421875 125.71875 C55.46748616 114.7549491 48.27472106 103.85309736 41 93 C37.22393775 95.82372203 34.35642564 98.80438631 31.4375 102.5 C27.24336025 107.79173959 27.24336025 107.79173959 24.89764404 109.7991333 C22.45499811 112.6320872 22.48577299 114.16456028 22.45410156 117.87011719 C22.42452362 119.64150055 22.42452362 119.64150055 22.39434814 121.44866943 C22.39250519 123.35353119 22.39250519 123.35353119 22.390625 125.296875 C22.37408875 126.60078186 22.35755249 127.90468872 22.34051514 129.24810791 C22.29687061 132.70701979 22.27684946 136.16567822 22.26177979 139.62481689 C22.24219784 143.15758229 22.20022922 146.69007438 22.16015625 150.22265625 C22.08488594 157.14836151 22.03664559 164.07398375 22 171 C14.74 171 7.48 171 0 171 C0 114.57 0 58.14 0 0 Z " fill="#FCFCFC" transform="translate(268,171)"/>
<path d="M0 0 C6.166875 -0.0825 12.33375 -0.165 18.6875 -0.25 C20.60522217 -0.28641602 22.52294434 -0.32283203 24.4987793 -0.36035156 C36.11432024 -0.49051903 48.57996341 -0.43415508 57.5 8.1875 C64.59022811 15.17396867 68.10661033 22.20721458 68.25 32.125 C68.13763564 42.15913717 65.79113464 49.53148876 59 57 C53.22448176 62.61942315 44.8595037 66.13845526 36.78222656 66.11352539 C35.5343335 66.11334412 35.5343335 66.11334412 34.26123047 66.11315918 C33.39643066 66.10804321 32.53163086 66.10292725 31.640625 66.09765625 C30.83866699 66.09664917 30.03670898 66.09564209 29.21044922 66.09460449 C26.2236182 66.08938473 23.23680762 66.07542347 20.25 66.0625 C13.5675 66.041875 6.885 66.02125 0 66 C0 44.22 0 22.44 0 0 Z " fill="#0A0A0A" transform="translate(148,189)"/>
<path d="M0 0 C0.33 0 0.66 0 1 0 C1 13.86 1 27.72 1 42 C-12.86 42 -26.72 42 -41 42 C-41 41.67 -41 41.34 -41 41 C-40.39414062 40.84144531 -39.78828125 40.68289063 -39.1640625 40.51953125 C-25.09512641 36.60187366 -13.84146234 29.77392316 -6 17.0625 C-3.03982263 11.58936631 -1.25652351 6.07918043 0 0 Z " fill="#000000" transform="translate(511,470)"/>
<path d="M0 0 C0.33 0 0.66 0 1 0 C1.15855469 0.60585938 1.31710938 1.21171875 1.48046875 1.8359375 C5.39812634 15.90487359 12.22607684 27.15853766 24.9375 35 C30.41063369 37.96017737 35.92081957 39.74347649 42 41 C42 41.33 42 41.66 42 42 C28.14 42 14.28 42 0 42 C0 28.14 0 14.28 0 0 Z " fill="#000000" transform="translate(0,470)"/>
<path d="M0 0 C13.86 0 27.72 0 42 0 C42 13.86 42 27.72 42 42 C41.67 42 41.34 42 41 42 C40.84144531 41.39414062 40.68289063 40.78828125 40.51953125 40.1640625 C36.60187366 26.09512641 29.77392316 14.84146234 17.0625 7 C11.58936631 4.03982263 6.07918043 2.25652351 0 1 C0 0.67 0 0.34 0 0 Z " fill="#000000" transform="translate(470,0)"/>
<path d="M0 0 C13.86 0 27.72 0 42 0 C42 0.33 42 0.66 42 1 C41.09121094 1.23783203 41.09121094 1.23783203 40.1640625 1.48046875 C26.09512641 5.39812634 14.84146234 12.22607684 7 24.9375 C4.03982263 30.41063369 2.25652351 35.92081957 1 42 C0.67 42 0.34 42 0 42 C0 28.14 0 14.28 0 0 Z " fill="#000000" transform="translate(0,0)"/>
</svg>
